<mxfile host="app.diagrams.net" modified="2023-08-26T08:29:33.793Z" agent="Mozilla/5.0 (Macintosh; Intel Mac OS X 10.15; rv:109.0) Gecko/20100101 Firefox/116.0" etag="cw6xVK2uLJqXxnNkSCmw" version="21.6.9" type="device">
  <diagram name="Page-1" id="2c0d36ab-eaac-3732-788b-9136903baeff">
    <mxGraphModel dx="3802.5" dy="1099" grid="1" gridSize="10" guides="1" tooltips="1" connect="1" arrows="1" fold="1" page="1" pageScale="1.5" pageWidth="1169" pageHeight="827" background="none" math="0" shadow="0">
      <root>
        <mxCell id="0" />
        <mxCell id="1" parent="0" />
        <mxCell id="KD-GGYxjvqdxob9nk7W1-125" style="edgeStyle=orthogonalEdgeStyle;rounded=0;orthogonalLoop=1;jettySize=auto;html=1;exitX=0.5;exitY=1;exitDx=0;exitDy=0;entryX=0.5;entryY=0;entryDx=0;entryDy=0;fontSize=18;fontStyle=1" parent="1" source="KD-GGYxjvqdxob9nk7W1-123" target="KD-GGYxjvqdxob9nk7W1-126" edge="1">
          <mxGeometry relative="1" as="geometry">
            <mxPoint x="280" y="270" as="targetPoint" />
          </mxGeometry>
        </mxCell>
        <mxCell id="KD-GGYxjvqdxob9nk7W1-123" value="&lt;div style=&quot;font-size: 18px;&quot;&gt;&lt;font style=&quot;font-size: 18px;&quot;&gt;&lt;span style=&quot;font-size: 18px;&quot;&gt;Spring Framework - Core Technologies&lt;/span&gt;&lt;/font&gt;&lt;/div&gt;" style="rounded=0;whiteSpace=wrap;html=1;fontSize=18;fontStyle=1" parent="1" vertex="1">
          <mxGeometry x="633" y="40" width="488" height="90" as="geometry" />
        </mxCell>
        <mxCell id="e8uj0AJ0XxOljoBlH9vN-1" value="" style="edgeStyle=orthogonalEdgeStyle;rounded=0;orthogonalLoop=1;jettySize=auto;html=1;fontSize=18;fontStyle=1" edge="1" parent="1" source="KD-GGYxjvqdxob9nk7W1-126" target="KD-GGYxjvqdxob9nk7W1-132">
          <mxGeometry relative="1" as="geometry" />
        </mxCell>
        <mxCell id="e8uj0AJ0XxOljoBlH9vN-5" style="edgeStyle=orthogonalEdgeStyle;rounded=0;orthogonalLoop=1;jettySize=auto;html=1;exitX=0.5;exitY=1;exitDx=0;exitDy=0;entryX=0.5;entryY=0;entryDx=0;entryDy=0;fontSize=18;fontStyle=1" edge="1" parent="1" source="KD-GGYxjvqdxob9nk7W1-126" target="KD-GGYxjvqdxob9nk7W1-130">
          <mxGeometry relative="1" as="geometry" />
        </mxCell>
        <mxCell id="KD-GGYxjvqdxob9nk7W1-126" value="&lt;span style=&quot;font-size: 18px;&quot;&gt;&lt;font style=&quot;font-size: 18px;&quot;&gt;IoC Container&lt;/font&gt;&lt;/span&gt;" style="rounded=0;whiteSpace=wrap;html=1;fontSize=18;fontStyle=1" parent="1" vertex="1">
          <mxGeometry x="240" y="170" width="260" height="70" as="geometry" />
        </mxCell>
        <mxCell id="KD-GGYxjvqdxob9nk7W1-130" value="&lt;span style=&quot;font-size: 18px;&quot;&gt;&lt;font style=&quot;font-size: 18px;&quot;&gt;BeanFactory&lt;/font&gt;&lt;/span&gt;" style="rounded=0;whiteSpace=wrap;html=1;fontSize=18;fontStyle=1" parent="1" vertex="1">
          <mxGeometry x="380" y="320" width="220" height="60" as="geometry" />
        </mxCell>
        <mxCell id="KD-GGYxjvqdxob9nk7W1-146" style="edgeStyle=orthogonalEdgeStyle;rounded=0;orthogonalLoop=1;jettySize=auto;html=1;exitX=0.5;exitY=1;exitDx=0;exitDy=0;entryX=1;entryY=0.5;entryDx=0;entryDy=0;fontSize=18;fontStyle=1" parent="1" source="KD-GGYxjvqdxob9nk7W1-132" target="KD-GGYxjvqdxob9nk7W1-136" edge="1">
          <mxGeometry relative="1" as="geometry" />
        </mxCell>
        <mxCell id="KD-GGYxjvqdxob9nk7W1-148" style="edgeStyle=orthogonalEdgeStyle;rounded=0;orthogonalLoop=1;jettySize=auto;html=1;exitX=0.5;exitY=1;exitDx=0;exitDy=0;entryX=1;entryY=0.5;entryDx=0;entryDy=0;fontSize=18;fontStyle=1" parent="1" source="KD-GGYxjvqdxob9nk7W1-132" target="KD-GGYxjvqdxob9nk7W1-145" edge="1">
          <mxGeometry relative="1" as="geometry" />
        </mxCell>
        <mxCell id="e8uj0AJ0XxOljoBlH9vN-2" style="edgeStyle=orthogonalEdgeStyle;rounded=0;orthogonalLoop=1;jettySize=auto;html=1;exitX=0.5;exitY=1;exitDx=0;exitDy=0;entryX=1;entryY=0.5;entryDx=0;entryDy=0;fontSize=18;fontStyle=1" edge="1" parent="1" source="KD-GGYxjvqdxob9nk7W1-132" target="KD-GGYxjvqdxob9nk7W1-149">
          <mxGeometry relative="1" as="geometry" />
        </mxCell>
        <mxCell id="e8uj0AJ0XxOljoBlH9vN-3" style="edgeStyle=orthogonalEdgeStyle;rounded=0;orthogonalLoop=1;jettySize=auto;html=1;exitX=0.5;exitY=1;exitDx=0;exitDy=0;entryX=1;entryY=0.5;entryDx=0;entryDy=0;fontSize=18;fontStyle=1" edge="1" parent="1" source="KD-GGYxjvqdxob9nk7W1-132" target="KD-GGYxjvqdxob9nk7W1-144">
          <mxGeometry relative="1" as="geometry" />
        </mxCell>
        <mxCell id="e8uj0AJ0XxOljoBlH9vN-8" style="edgeStyle=orthogonalEdgeStyle;rounded=0;orthogonalLoop=1;jettySize=auto;html=1;exitX=0.5;exitY=1;exitDx=0;exitDy=0;entryX=1;entryY=0.5;entryDx=0;entryDy=0;fontSize=18;fontStyle=1" edge="1" parent="1" source="KD-GGYxjvqdxob9nk7W1-132" target="e8uj0AJ0XxOljoBlH9vN-7">
          <mxGeometry relative="1" as="geometry" />
        </mxCell>
        <mxCell id="KD-GGYxjvqdxob9nk7W1-132" value="&lt;span style=&quot;font-size: 18px;&quot;&gt;&lt;font style=&quot;font-size: 18px;&quot;&gt;ApplicationContext&lt;/font&gt;&lt;/span&gt;" style="rounded=0;whiteSpace=wrap;html=1;fontSize=18;fontStyle=1" parent="1" vertex="1">
          <mxGeometry x="110" y="320" width="220" height="60" as="geometry" />
        </mxCell>
        <mxCell id="KD-GGYxjvqdxob9nk7W1-136" value="&lt;span style=&quot;font-size: 18px;&quot;&gt;&lt;font style=&quot;font-size: 18px;&quot;&gt;WebApplicationContext&lt;/font&gt;&lt;/span&gt;" style="rounded=0;whiteSpace=wrap;html=1;fontSize=18;fontStyle=1" parent="1" vertex="1">
          <mxGeometry x="-110" y="450" width="270" height="60" as="geometry" />
        </mxCell>
        <mxCell id="KD-GGYxjvqdxob9nk7W1-144" value="&lt;span style=&quot;font-size: 18px;&quot;&gt;&lt;font style=&quot;font-size: 18px;&quot;&gt;ClassPathXmlApplicationContext&lt;/font&gt;&lt;/span&gt;" style="rounded=0;whiteSpace=wrap;html=1;fontSize=18;fontStyle=1" parent="1" vertex="1">
          <mxGeometry x="-200" y="530" width="360" height="60" as="geometry" />
        </mxCell>
        <mxCell id="KD-GGYxjvqdxob9nk7W1-145" value="&lt;span style=&quot;font-size: 18px;&quot;&gt;&lt;font style=&quot;font-size: 18px;&quot;&gt;FileSystemXmlApplicationContext&lt;/font&gt;&lt;/span&gt;" style="rounded=0;whiteSpace=wrap;html=1;fontSize=18;fontStyle=1" parent="1" vertex="1">
          <mxGeometry x="-200" y="610" width="360" height="60" as="geometry" />
        </mxCell>
        <mxCell id="KD-GGYxjvqdxob9nk7W1-149" value="&lt;span style=&quot;font-size: 18px;&quot;&gt;&lt;font style=&quot;font-size: 18px;&quot;&gt;AnnotationsConfigApplicationContext&lt;/font&gt;&lt;/span&gt;" style="rounded=0;whiteSpace=wrap;html=1;fontSize=18;fontStyle=1" parent="1" vertex="1">
          <mxGeometry x="-240" y="690" width="400" height="60" as="geometry" />
        </mxCell>
        <mxCell id="KD-GGYxjvqdxob9nk7W1-151" value="&lt;span style=&quot;font-size: 18px;&quot;&gt;&lt;font style=&quot;font-size: 18px;&quot;&gt;Resources&lt;/font&gt;&lt;/span&gt;" style="rounded=0;whiteSpace=wrap;html=1;fontSize=18;fontStyle=1" parent="1" vertex="1">
          <mxGeometry x="1010" y="170" width="260" height="70" as="geometry" />
        </mxCell>
        <mxCell id="KD-GGYxjvqdxob9nk7W1-152" value="&lt;span style=&quot;font-size: 18px;&quot;&gt;&lt;font style=&quot;font-size: 18px;&quot;&gt;Validation, Data Binding and Type Conversion&lt;br style=&quot;font-size: 18px;&quot;&gt;&lt;/font&gt;&lt;/span&gt;" style="rounded=0;whiteSpace=wrap;html=1;fontSize=18;fontStyle=1" parent="1" vertex="1">
          <mxGeometry x="1010" y="270" width="260" height="70" as="geometry" />
        </mxCell>
        <mxCell id="KD-GGYxjvqdxob9nk7W1-153" value="&lt;span style=&quot;font-size: 18px;&quot;&gt;&lt;font style=&quot;font-size: 18px;&quot;&gt;Spring Expression Language (SpEL)&lt;br style=&quot;font-size: 18px;&quot;&gt;&lt;/font&gt;&lt;/span&gt;" style="rounded=0;whiteSpace=wrap;html=1;fontSize=18;fontStyle=1" parent="1" vertex="1">
          <mxGeometry x="1010" y="370" width="260" height="70" as="geometry" />
        </mxCell>
        <mxCell id="KD-GGYxjvqdxob9nk7W1-154" value="&lt;span style=&quot;font-size: 18px;&quot;&gt;&lt;font style=&quot;font-size: 18px;&quot;&gt;AO&lt;/font&gt;&lt;font style=&quot;font-size: 18px;&quot;&gt;P with Spring&lt;br style=&quot;font-size: 18px;&quot;&gt;&lt;/font&gt;&lt;/span&gt;" style="rounded=0;whiteSpace=wrap;html=1;fontSize=18;fontStyle=1" parent="1" vertex="1">
          <mxGeometry x="1010" y="470" width="260" height="70" as="geometry" />
        </mxCell>
        <mxCell id="KD-GGYxjvqdxob9nk7W1-155" value="&lt;span style=&quot;font-size: 18px;&quot;&gt;&lt;font style=&quot;font-size: 18px;&quot;&gt;AOP APIs&lt;br style=&quot;font-size: 18px;&quot;&gt;&lt;/font&gt;&lt;/span&gt;" style="rounded=0;whiteSpace=wrap;html=1;fontSize=18;fontStyle=1" parent="1" vertex="1">
          <mxGeometry x="1010" y="560" width="260" height="70" as="geometry" />
        </mxCell>
        <mxCell id="KD-GGYxjvqdxob9nk7W1-156" value="&lt;span style=&quot;font-size: 18px;&quot;&gt;&lt;font style=&quot;font-size: 18px;&quot;&gt;Null Safety&lt;br style=&quot;font-size: 18px;&quot;&gt;&lt;/font&gt;&lt;/span&gt;" style="rounded=0;whiteSpace=wrap;html=1;fontSize=18;fontStyle=1" parent="1" vertex="1">
          <mxGeometry x="1010" y="650" width="260" height="70" as="geometry" />
        </mxCell>
        <mxCell id="KD-GGYxjvqdxob9nk7W1-157" value="&lt;span style=&quot;font-size: 18px;&quot;&gt;&lt;font style=&quot;font-size: 18px;&quot;&gt;Data Buffers and Codecs&lt;br style=&quot;font-size: 18px;&quot;&gt;&lt;/font&gt;&lt;/span&gt;" style="rounded=0;whiteSpace=wrap;html=1;fontSize=18;fontStyle=1" parent="1" vertex="1">
          <mxGeometry x="1010" y="740" width="260" height="70" as="geometry" />
        </mxCell>
        <mxCell id="e8uj0AJ0XxOljoBlH9vN-7" value="&lt;span style=&quot;font-size: 18px;&quot;&gt;Other ApplicationContext Implementations&lt;br style=&quot;font-size: 18px;&quot;&gt;&lt;/span&gt;" style="rounded=0;whiteSpace=wrap;html=1;fontSize=18;fontStyle=1" vertex="1" parent="1">
          <mxGeometry x="-190" y="770" width="350" height="60" as="geometry" />
        </mxCell>
        <mxCell id="e8uj0AJ0XxOljoBlH9vN-10" value="" style="html=1;labelBackgroundColor=#ffffff;startArrow=none;startFill=0;startSize=6;endArrow=classic;endFill=1;endSize=6;jettySize=auto;orthogonalLoop=1;strokeWidth=1;dashed=1;fontSize=14;rounded=0;entryX=1;entryY=0.5;entryDx=0;entryDy=0;exitX=0;exitY=0.5;exitDx=0;exitDy=0;" edge="1" parent="1" source="KD-GGYxjvqdxob9nk7W1-130" target="KD-GGYxjvqdxob9nk7W1-132">
          <mxGeometry width="60" height="60" relative="1" as="geometry">
            <mxPoint x="440" y="550" as="sourcePoint" />
            <mxPoint x="500" y="490" as="targetPoint" />
          </mxGeometry>
        </mxCell>
      </root>
    </mxGraphModel>
  </diagram>
</mxfile>
